<svg width="120" height="120" viewBox="0 0 120 120" fill="none" xmlns="http://www.w3.org/2000/svg">
  <!-- Background circle with gradient -->
  <circle cx="60" cy="60" r="60" fill="url(#gradient1)"/>
  
  <!-- Plate -->
  <ellipse cx="60" cy="75" rx="37" ry="12" fill="url(#gradient2)" opacity="0.9"/>
  
  <!-- Pizza slice -->
  <path d="M60 25 L87 62 L60 75 L33 62 Z" fill="url(#gradient3)"/>
  
  <!-- Pizza toppings -->
  <circle cx="50" cy="50" r="3" fill="#FF6B6B"/>
  <circle cx="69" cy="53" r="2" fill="#4ECDC4"/>
  <circle cx="53" cy="62" r="2" fill="#45B7D1"/>
  <circle cx="66" cy="59" r="3" fill="#96CEB4"/>
  <circle cx="44" cy="56" r="2" fill="#FFEAA7"/>
  <circle cx="75" cy="47" r="2" fill="#DDA0DD"/>
  
  <!-- Fork -->
  <rect x="19" y="37" width="2" height="16" fill="url(#gradient4)"/>
  <rect x="18" y="37" width="4" height="1" fill="url(#gradient4)"/>
  <rect x="17" y="38" width="6" height="1" fill="url(#gradient4)"/>
  
  <!-- Knife -->
  <rect x="100" y="41" width="2" height="12" fill="url(#gradient4)"/>
  <path d="M100 41 L106 37 L106 45 Z" fill="url(#gradient4)"/>
  
  <!-- Steam lines -->
  <path d="M60 12 Q61 9 62 12" stroke="url(#gradient5)" stroke-width="1" fill="none" opacity="0.7"/>
  <path d="M56 11 Q57 8 58 11" stroke="url(#gradient5)" stroke-width="1" fill="none" opacity="0.7"/>
  <path d="M64 11 Q65 8 66 11" stroke="url(#gradient5)" stroke-width="1" fill="none" opacity="0.7"/>
  
  <!-- Gradients -->
  <defs>
    <linearGradient id="gradient1" x1="0%" y1="0%" x2="100%" y2="100%">
      <stop offset="0%" style="stop-color:#667eea;stop-opacity:1" />
      <stop offset="50%" style="stop-color:#764ba2;stop-opacity:1" />
      <stop offset="100%" style="stop-color:#f093fb;stop-opacity:1" />
    </linearGradient>
    <linearGradient id="gradient2" x1="0%" y1="0%" x2="100%" y2="100%">
      <stop offset="0%" style="stop-color:#ffffff;stop-opacity:0.9" />
      <stop offset="100%" style="stop-color:#f8f9fa;stop-opacity:0.8" />
    </linearGradient>
    <linearGradient id="gradient3" x1="0%" y1="0%" x2="100%" y2="100%">
      <stop offset="0%" style="stop-color:#FFD93D;stop-opacity:1" />
      <stop offset="100%" style="stop-color:#FF6B6B;stop-opacity:1" />
    </linearGradient>
    <linearGradient id="gradient4" x1="0%" y1="0%" x2="100%" y2="100%">
      <stop offset="0%" style="stop-color:#E8E8E8;stop-opacity:1" />
      <stop offset="100%" style="stop-color:#C0C0C0;stop-opacity:1" />
    </linearGradient>
    <linearGradient id="gradient5" x1="0%" y1="0%" x2="100%" y2="100%">
      <stop offset="0%" style="stop-color:#ffffff;stop-opacity:0.8" />
      <stop offset="100%" style="stop-color:#ffffff;stop-opacity:0.3" />
    </linearGradient>
  </defs>
</svg>
