<svg width="167" height="167" viewBox="0 0 167 167" fill="none" xmlns="http://www.w3.org/2000/svg">
  <!-- Background circle with gradient -->
  <circle cx="83.5" cy="83.5" r="83.5" fill="url(#gradient1)"/>
  
  <!-- Plate -->
  <ellipse cx="83.5" cy="104" rx="52" ry="17" fill="url(#gradient2)" opacity="0.9"/>
  
  <!-- Pizza slice -->
  <path d="M83.5 35 L122 87 L83.5 104 L45 87 Z" fill="url(#gradient3)"/>
  
  <!-- Pizza toppings -->
  <circle cx="69" cy="69" r="4" fill="#FF6B6B"/>
  <circle cx="96" cy="74" r="3" fill="#4ECDC4"/>
  <circle cx="74" cy="87" r="3" fill="#45B7D1"/>
  <circle cx="92" cy="82" r="4" fill="#96CEB4"/>
  <circle cx="61" cy="78" r="3" fill="#FFEAA7"/>
  <circle cx="104" cy="65" r="3" fill="#DDA0DD"/>
  
  <!-- Fork -->
  <rect x="26" y="52" width="3" height="22" fill="url(#gradient4)"/>
  <rect x="25" y="52" width="5" height="2" fill="url(#gradient4)"/>
  <rect x="24" y="54" width="7" height="1" fill="url(#gradient4)"/>
  
  <!-- Knife -->
  <rect x="140" y="57" width="3" height="17" fill="url(#gradient4)"/>
  <path d="M140 57 L148 52 L148 62 Z" fill="url(#gradient4)"/>
  
  <!-- Steam lines -->
  <path d="M83.5 17 Q85 12 87 17" stroke="url(#gradient5)" stroke-width="2" fill="none" opacity="0.7"/>
  <path d="M78 16 Q80 11 82 16" stroke="url(#gradient5)" stroke-width="2" fill="none" opacity="0.7"/>
  <path d="M89 16 Q91 11 93 16" stroke="url(#gradient5)" stroke-width="2" fill="none" opacity="0.7"/>
  
  <!-- Gradients -->
  <defs>
    <linearGradient id="gradient1" x1="0%" y1="0%" x2="100%" y2="100%">
      <stop offset="0%" style="stop-color:#667eea;stop-opacity:1" />
      <stop offset="50%" style="stop-color:#764ba2;stop-opacity:1" />
      <stop offset="100%" style="stop-color:#f093fb;stop-opacity:1" />
    </linearGradient>
    <linearGradient id="gradient2" x1="0%" y1="0%" x2="100%" y2="100%">
      <stop offset="0%" style="stop-color:#ffffff;stop-opacity:0.9" />
      <stop offset="100%" style="stop-color:#f8f9fa;stop-opacity:0.8" />
    </linearGradient>
    <linearGradient id="gradient3" x1="0%" y1="0%" x2="100%" y2="100%">
      <stop offset="0%" style="stop-color:#FFD93D;stop-opacity:1" />
      <stop offset="100%" style="stop-color:#FF6B6B;stop-opacity:1" />
    </linearGradient>
    <linearGradient id="gradient4" x1="0%" y1="0%" x2="100%" y2="100%">
      <stop offset="0%" style="stop-color:#E8E8E8;stop-opacity:1" />
      <stop offset="100%" style="stop-color:#C0C0C0;stop-opacity:1" />
    </linearGradient>
    <linearGradient id="gradient5" x1="0%" y1="0%" x2="100%" y2="100%">
      <stop offset="0%" style="stop-color:#ffffff;stop-opacity:0.8" />
      <stop offset="100%" style="stop-color:#ffffff;stop-opacity:0.3" />
    </linearGradient>
  </defs>
</svg>
