<svg width="152" height="152" viewBox="0 0 152 152" fill="none" xmlns="http://www.w3.org/2000/svg">
  <!-- Background circle with gradient -->
  <circle cx="76" cy="76" r="76" fill="url(#gradient1)"/>
  
  <!-- Plate -->
  <ellipse cx="76" cy="95" rx="47" ry="15" fill="url(#gradient2)" opacity="0.9"/>
  
  <!-- Pizza slice -->
  <path d="M76 32 L111 79 L76 95 L41 79 Z" fill="url(#gradient3)"/>
  
  <!-- Pizza toppings -->
  <circle cx="63" cy="63" r="4" fill="#FF6B6B"/>
  <circle cx="87" cy="67" r="3" fill="#4ECDC4"/>
  <circle cx="67" cy="79" r="3" fill="#45B7D1"/>
  <circle cx="84" cy="75" r="4" fill="#96CEB4"/>
  <circle cx="56" cy="71" r="3" fill="#FFEAA7"/>
  <circle cx="95" cy="59" r="3" fill="#DDA0DD"/>
  
  <!-- Fork -->
  <rect x="24" y="47" width="2" height="20" fill="url(#gradient4)"/>
  <rect x="23" y="47" width="5" height="2" fill="url(#gradient4)"/>
  <rect x="22" y="49" width="7" height="1" fill="url(#gradient4)"/>
  
  <!-- Knife -->
  <rect x="127" y="52" width="2" height="16" fill="url(#gradient4)"/>
  <path d="M127 52 L135 47 L135 57 Z" fill="url(#gradient4)"/>
  
  <!-- Steam lines -->
  <path d="M76 15 Q78 11 80 15" stroke="url(#gradient5)" stroke-width="2" fill="none" opacity="0.7"/>
  <path d="M71 14 Q73 10 75 14" stroke="url(#gradient5)" stroke-width="2" fill="none" opacity="0.7"/>
  <path d="M81 14 Q83 10 85 14" stroke="url(#gradient5)" stroke-width="2" fill="none" opacity="0.7"/>
  
  <!-- Gradients -->
  <defs>
    <linearGradient id="gradient1" x1="0%" y1="0%" x2="100%" y2="100%">
      <stop offset="0%" style="stop-color:#667eea;stop-opacity:1" />
      <stop offset="50%" style="stop-color:#764ba2;stop-opacity:1" />
      <stop offset="100%" style="stop-color:#f093fb;stop-opacity:1" />
    </linearGradient>
    <linearGradient id="gradient2" x1="0%" y1="0%" x2="100%" y2="100%">
      <stop offset="0%" style="stop-color:#ffffff;stop-opacity:0.9" />
      <stop offset="100%" style="stop-color:#f8f9fa;stop-opacity:0.8" />
    </linearGradient>
    <linearGradient id="gradient3" x1="0%" y1="0%" x2="100%" y2="100%">
      <stop offset="0%" style="stop-color:#FFD93D;stop-opacity:1" />
      <stop offset="100%" style="stop-color:#FF6B6B;stop-opacity:1" />
    </linearGradient>
    <linearGradient id="gradient4" x1="0%" y1="0%" x2="100%" y2="100%">
      <stop offset="0%" style="stop-color:#E8E8E8;stop-opacity:1" />
      <stop offset="100%" style="stop-color:#C0C0C0;stop-opacity:1" />
    </linearGradient>
    <linearGradient id="gradient5" x1="0%" y1="0%" x2="100%" y2="100%">
      <stop offset="0%" style="stop-color:#ffffff;stop-opacity:0.8" />
      <stop offset="100%" style="stop-color:#ffffff;stop-opacity:0.3" />
    </linearGradient>
  </defs>
</svg>
