<svg width="300" height="200" viewBox="0 0 300 200" xmlns="http://www.w3.org/2000/svg">
  <defs>
    <linearGradient id="pastaGrad" x1="0%" y1="0%" x2="100%" y2="100%">
      <stop offset="0%" style="stop-color:#FFE4B5;stop-opacity:1" />
      <stop offset="100%" style="stop-color:#F5DEB3;stop-opacity:1" />
    </linearGradient>
  </defs>
  <rect width="300" height="200" fill="#f8f9fa"/>
  <ellipse cx="150" cy="100" rx="60" ry="40" fill="url(#pastaGrad)" stroke="#8B4513" stroke-width="2"/>
  <path d="M 70 100 Q 100 80 130 100 Q 160 120 190 100 Q 220 80 250 100" stroke="#8B4513" stroke-width="2" fill="none"/>
  <path d="M 70 110 Q 100 90 130 110 Q 160 130 190 110 Q 220 90 250 110" stroke="#8B4513" stroke-width="2" fill="none"/>
  <path d="M 70 120 Q 100 100 130 120 Q 160 140 190 120 Q 220 100 250 120" stroke="#8B4513" stroke-width="2" fill="none"/>
  <circle cx="140" cy="90" r="4" fill="#FF0000"/>
  <circle cx="160" cy="95" r="3" fill="#00FF00"/>
  <circle cx="150" cy="110" r="3" fill="#8B4513"/>
</svg>
